<svg width="1400" height="840" viewBox="0 0 1400 840" fill="none" xmlns="http://www.w3.org/2000/svg">
  <defs>
    <linearGradient id="cBg" x1="0" y1="0" x2="1400" y2="840" gradientUnits="userSpaceOnUse">
      <stop stop-color="#060607"/>
      <stop offset="1" stop-color="#2E3646"/>
    </linearGradient>
  </defs>

  <rect width="1400" height="840" fill="url(#cBg)"/>
  <rect x="90" y="80" width="1220" height="680" rx="26" fill="#323A4C" fill-opacity="0.93" stroke="rgba(255,255,255,0.12)"/>

  <text x="150" y="150" fill="rgba(255,255,255,0.9)" font-family="Inter, Arial, sans-serif" font-size="31" font-weight="700">Code &amp; Document Signal Map</text>
  <text x="150" y="188" fill="rgba(255,255,255,0.58)" font-family="Inter, Arial, sans-serif" font-size="18">Structural signal coverage from uploaded content</text>

  <rect x="150" y="240" width="340" height="430" rx="18" fill="#2E3646" stroke="rgba(255,255,255,0.1)"/>
  <text x="180" y="288" fill="rgba(255,255,255,0.82)" font-family="Inter, Arial, sans-serif" font-size="20" font-weight="600">Detected Assets</text>
  <text x="180" y="330" fill="rgba(255,255,255,0.66)" font-family="Inter, Arial, sans-serif" font-size="15">• Main headings</text>
  <text x="180" y="360" fill="rgba(255,255,255,0.66)" font-family="Inter, Arial, sans-serif" font-size="15">• Section depth</text>
  <text x="180" y="390" fill="rgba(255,255,255,0.66)" font-family="Inter, Arial, sans-serif" font-size="15">• Entity mentions</text>
  <text x="180" y="420" fill="rgba(255,255,255,0.66)" font-family="Inter, Arial, sans-serif" font-size="15">• FAQ candidates</text>
  <text x="180" y="450" fill="rgba(255,255,255,0.66)" font-family="Inter, Arial, sans-serif" font-size="15">• Schema opportunities</text>

  <rect x="530" y="240" width="730" height="430" rx="18" fill="#2E3646" stroke="rgba(255,255,255,0.1)"/>
  <text x="560" y="288" fill="rgba(255,255,255,0.82)" font-family="Inter, Arial, sans-serif" font-size="20" font-weight="600">Signal Strength by Category</text>

  <rect x="560" y="330" width="620" height="22" rx="11" fill="rgba(255,255,255,0.12)"/>
  <rect x="560" y="330" width="520" height="22" rx="11" fill="rgba(255,255,255,0.72)"/>
  <text x="560" y="320" fill="rgba(255,255,255,0.68)" font-family="Inter, Arial, sans-serif" font-size="14">Content Structure</text>

  <rect x="560" y="390" width="620" height="22" rx="11" fill="rgba(255,255,255,0.12)"/>
  <rect x="560" y="390" width="410" height="22" rx="11" fill="rgba(255,255,255,0.58)"/>
  <text x="560" y="380" fill="rgba(255,255,255,0.68)" font-family="Inter, Arial, sans-serif" font-size="14">Semantic Markup Readiness</text>

  <rect x="560" y="450" width="620" height="22" rx="11" fill="rgba(255,255,255,0.12)"/>
  <rect x="560" y="450" width="350" height="22" rx="11" fill="rgba(255,255,255,0.5)"/>
  <text x="560" y="440" fill="rgba(255,255,255,0.68)" font-family="Inter, Arial, sans-serif" font-size="14">Citation Clarity</text>

  <rect x="560" y="510" width="620" height="22" rx="11" fill="rgba(255,255,255,0.12)"/>
  <rect x="560" y="510" width="460" height="22" rx="11" fill="rgba(255,255,255,0.62)"/>
  <text x="560" y="500" fill="rgba(255,255,255,0.68)" font-family="Inter, Arial, sans-serif" font-size="14">Recommendation Coverage</text>

  <text x="560" y="580" fill="rgba(255,255,255,0.66)" font-family="Inter, Arial, sans-serif" font-size="15">Upload analysis uses file-aware extraction before scoring to preserve source context.</text>
</svg>
