<?xml version="1.0" encoding="UTF-8"?>
<svg width="1024" height="1024" viewBox="0 0 1024 1024" fill="none" xmlns="http://www.w3.org/2000/svg">
  <defs>
    <linearGradient id="g1" x1="0" y1="0" x2="1024" y2="1024" gradientUnits="userSpaceOnUse">
      <stop offset="0" stop-color="#00E5FF"/>
      <stop offset="1" stop-color="#00BFA6"/>
    </linearGradient>
    <filter id="softGlow" x="-50%" y="-50%" width="200%" height="200%">
      <feGaussianBlur stdDeviation="18" result="blur"/>
      <feMerge>
        <feMergeNode in="blur"/>
        <feMergeNode in="SourceGraphic"/>
      </feMerge>
    </filter>
  </defs>

  <!-- Dark background (for preview); comment out if you need pure transparent -->
  <rect x="0" y="0" width="1024" height="1024" fill="#0B0F14"/>

  <!-- Shield base -->
  <path d="M512 128c120 64 216 64 336 0 0 256-64 480-336 640C176 608 112 384 112 128c120 64 216 64 400 0z"
        fill="url(#g1)" opacity="0.12"/>
  <path d="M512 160c104 55 188 55 292 0 0 227-57 426-292 568-235-142-292-341-292-568 104 55 188 55 292 0z"
        stroke="url(#g1)" stroke-width="12" fill="none" filter="url(#softGlow)"/>

  <!-- Radar arcs -->
  <path d="M290 522a222 222 0 0 1 444 0" stroke="url(#g1)" stroke-width="10" fill="none" opacity="0.5"/>
  <path d="M330 522a182 182 0 0 1 364 0" stroke="url(#g1)" stroke-width="10" fill="none" opacity="0.7"/>

  <!-- Checkmark -->
  <path d="M380 520l80 80 184-184" stroke="white" stroke-width="28" stroke-linecap="round" stroke-linejoin="round"/>

  <!-- Center dot -->
  <circle cx="512" cy="522" r="8" fill="#FFFFFF"/>
</svg>
